<?xml version="1.0" encoding="UTF-8" standalone="no"?>
<!-- Created with Inkscape (http://www.inkscape.org/) -->

<svg
   version="1.1"
   id="svg1"
   width="1706.6667"
   height="1706.6667"
   viewBox="0 0 1706.6667 1706.6667"
   sodipodi:docname="logo.svg"
   inkscape:version="1.4.2 (f4327f4, 2025-05-13)"
   xmlns:inkscape="http://www.inkscape.org/namespaces/inkscape"
   xmlns:sodipodi="http://sodipodi.sourceforge.net/DTD/sodipodi-0.dtd"
   xmlns="http://www.w3.org/2000/svg"
   xmlns:svg="http://www.w3.org/2000/svg">
  <defs
     id="defs1">
    <rect
       x="1458.1463"
       y="380.92902"
       width="641.64684"
       height="502.70141"
       id="rect215" />
  </defs>
  <sodipodi:namedview
     id="namedview1"
     pagecolor="#ffffff"
     bordercolor="#000000"
     borderopacity="0.25"
     inkscape:showpageshadow="2"
     inkscape:pageopacity="0.0"
     inkscape:pagecheckerboard="0"
     inkscape:deskcolor="#d1d1d1"
     inkscape:zoom="0.32026964"
     inkscape:cx="1703.2523"
     inkscape:cy="928.90479"
     inkscape:window-width="1920"
     inkscape:window-height="991"
     inkscape:window-x="-9"
     inkscape:window-y="-9"
     inkscape:window-maximized="1"
     inkscape:current-layer="g1" />
  <g
     inkscape:groupmode="layer"
     inkscape:label="Image"
     id="g1">
    <g
       id="g208"
       transform="translate(-1.4751756,4.9133386)">
      <path
         style="fill:#fdfdfd"
         d="M 0,853.33337 V 0 H 853.33337 1706.6667 V 853.33337 1706.6667 H 853.33337 0 Z"
         id="path215" />
      <path
         style="fill:#e6a2af"
         d="M 0,853.33337 V 0 H 853.33337 1706.6667 V 853.33337 1706.6667 H 853.33337 0 Z M 773.33337,1064.762 c 0,-122.37812 0.21775,-136.78923 2.09524,-138.66672 3.13973,-3.13973 66.00313,-3.13973 69.14286,0 1.84936,1.84937 2.09524,9.98557 2.09524,69.33334 v 67.23808 h 32.57143 c 27.83261,0 32.87626,0.3049 34.66667,2.0953 1.84937,1.8493 2.09523,9.9863 2.09523,69.3416 v 67.2464 l 101.66666,-0.3416 101.6667,-0.3417 0.3359,-343.49179 0.3358,-343.49181 -5.0025,-0.82687 c -6.4705,-1.0695 -194.11217,-1.11419 -196.89351,-0.0469 -1.904,0.73064 -2.10905,13.9615 -2.10905,136.08766 0,90.70099 -0.45482,136.12819 -1.38024,137.85736 -1.30887,2.44564 -3.12767,2.57901 -35.17008,2.57901 -26.63083,0 -34.10427,-0.37888 -35.27397,-1.78828 -1.03627,-1.24863 -1.58849,-22.07076 -1.82993,-69 l -0.34578,-67.21173 -32.66667,-0.34515 c -28.8081,-0.30438 -32.86353,-0.6101 -34.33333,-2.58817 -1.28088,-1.72383 -1.66667,-17.57945 -1.66667,-68.49934 v -66.25633 l -3,-0.80396 c -3.97048,-1.06405 -189.55759,-1.04945 -196.00001,0.0154 l -5,0.82645 v 342.93667 c 0,188.61518 0.4,343.33668 0.88889,343.82558 0.48889,0.4889 46.38889,0.8889 102,0.8889 h 101.11112 z"
         id="path214" />
      <path
         style="fill:#d97386"
         d="M 0,853.33337 V 0 H 853.33337 1706.6667 V 853.33337 1706.6667 H 853.33337 0 Z m 775.19072,347.22433 c 0.44512,-1.16 0.80932,-63.26 0.80932,-138 V 926.66671 h 34 34 v 66.55762 c 0,36.60667 0.36419,67.50667 0.80932,68.66667 0.70664,1.8415 4.83731,2.1091 32.55762,2.1091 17.46156,0 32.69737,0.3641 33.85735,0.8093 1.88399,0.7229 2.11123,7.9435 2.12946,67.6666 0.0112,36.7716 0.49896,67.6111 1.08385,68.5324 0.84159,1.3256 22.46197,1.6037 103.64626,1.3333 l 102.5828,-0.3416 0.3359,-344.58646 c 0.2679,-274.78976 0,-344.80109 -1.3333,-345.64627 -0.9181,-0.58291 -47.0458,-1.06903 -102.506,-1.08026 -82.92526,-0.0168 -101.10145,0.29854 -102.32701,1.77525 -1.0718,1.29145 -1.58566,40.13609 -1.82993,138.33334 l -0.33965,136.53767 -32.94069,0.3565 c -30.57433,0.33088 -33.03304,0.18396 -34.22609,-2.04528 -0.77418,-1.44657 -1.29509,-28.57304 -1.30977,-68.20697 -0.0134,-36.19285 -0.53071,-66.31151 -1.14955,-66.93035 -0.61885,-0.61885 -15.80614,-1.28614 -33.74954,-1.48287 l -32.62437,-0.3577 -0.34578,-67.21172 c -0.24144,-46.92925 -0.79365,-67.75137 -1.82993,-69.00001 -1.21709,-1.46651 -19.54828,-1.78828 -101.8785,-1.78828 -55.2169,0 -101.34344,0.36419 -102.50341,0.80932 -1.91565,0.7351 -2.10905,32.3829 -2.10905,345.11113 0,189.36596 0.4,344.70176 0.88889,345.19066 0.48888,0.4889 46.92469,0.8889 103.19068,0.8889 92.05587,0 102.38286,-0.2112 103.11112,-2.109 z"
         id="path213" />
      <path
         style="fill:#d4506b"
         d="M 0,853.33337 V 0 H 853.33337 1706.6667 V 853.33337 1706.6667 H 853.33337 0 Z m 775.67302,213.46233 c 0.24427,-98.19723 0.75813,-137.04187 1.82993,-138.33332 2.17106,-2.61596 62.8174,-2.62286 64.98805,-0.007 1.03627,1.24864 1.58849,22.07076 1.82992,69.00001 l 0.34579,67.21171 33.66667,0.3562 c 18.51666,0.196 33.80302,0.496 33.96968,0.6667 0.16665,0.1708 0.61665,31.2105 1,68.9771 l 0.69698,68.6667 102.52006,0.3416 c 74.6303,0.2488 103.0133,-0.068 104.3333,-1.1632 1.5204,-1.2618 1.81,-56.9979 1.7929,-345.00836 -0.011,-188.92688 -0.4989,-344.25715 -1.0838,-345.17838 -0.8416,-1.32565 -22.5953,-1.60371 -104.3129,-1.33333 l -103.24956,0.34162 -0.66666,137.33334 -0.66667,137.33334 H 879.33338 846.00004 L 845.6546,717.6667 c -0.18999,-37.58333 -0.48999,-68.45737 -0.66667,-68.60897 -0.17667,-0.1516 -15.62122,-0.6016 -34.32122,-1 l -34.00001,-0.72437 -0.66666,-68 -0.66667,-68 h -104 -104.00001 l -0.33588,344.52699 c -0.2481,254.48875 0.0577,345.00125 1.17005,346.34155 1.25092,1.5072 18.91941,1.7567 104.33589,1.473 l 102.82995,-0.3415 z"
         id="path212" />
      <path
         style="fill:#d92143"
         d="M 0,853.33337 V 0 H 853.33337 1706.6667 V 853.33337 1706.6667 H 853.33337 0 Z m 775.83046,350.20433 c 1.0718,-1.2914 1.58565,-40.1361 1.82993,-138.3333 l 0.33965,-136.53769 h 32 32 l 0.34578,67.21172 c 0.23871,46.39927 0.79945,67.75837 1.81086,68.97707 1.12775,1.3588 9.02979,1.8473 34.32088,2.1216 l 32.85582,0.3563 0.34578,67.2117 c 0.24144,46.9293 0.79365,67.7514 1.82993,69 1.21757,1.4671 19.878,1.7883 103.89231,1.7883 91.3206,0 102.635,-0.2269 104.5034,-2.0952 1.894,-1.894 2.0953,-35.1829 2.0953,-346.50347 0,-288.74338 -0.2931,-344.6514 -1.8132,-345.913 -1.3202,-1.09566 -30.0504,-1.41195 -105.6667,-1.16326 l -103.85349,0.34155 -0.66667,137.33334 -0.66666,137.33334 -32.33334,0.35704 -32.33333,0.35704 v -67.9768 c 0,-65.84205 -0.081,-68.02014 -2.57901,-69.35704 -1.57277,-0.84171 -15.09387,-1.38024 -34.65456,-1.38024 h -32.07555 l -0.34544,-68.33334 -0.34545,-68.33334 -103.85348,-0.34155 c -75.61627,-0.24869 -104.34648,0.0676 -105.66667,1.16326 -1.52013,1.2616 -1.81319,57.16962 -1.81319,345.913 0,311.32057 0.20129,344.60947 2.09524,346.50347 1.86839,1.8683 13.18285,2.0952 104.50341,2.0952 84.22385,0 102.6728,-0.3189 103.89845,-1.7957 z"
         id="path211" />
      <path
         style="fill:#ce1e40"
         d="m 1065.3334,1699.7094 c -3.3,-3.8112 -7.7579,-8.4549 -9.9064,-10.3194 -5.862,-5.0869 -18.0936,-17.8035 -18.0936,-18.811 0,-0.4856 -2.25,-2.4722 -5,-4.4146 -2.75,-1.9424 -7.7,-6.7881 -11,-10.7683 -3.3,-3.9801 -6.4626,-7.2725 -7.028,-7.3163 -1.3169,-0.1021 -19.63869,-18.8669 -19.63869,-20.1134 0,-0.5154 -2.25,-2.5262 -5,-4.4687 -2.75,-1.9424 -7.7,-6.7881 -11,-10.7682 -3.3,-3.9802 -6.46935,-7.2725 -7.04301,-7.3164 -0.57366,-0.044 -5.07366,-4.3598 -10,-9.5911 -4.92635,-5.2313 -10.72018,-11.0813 -12.87519,-13 -2.155,-1.9187 -6.955,-6.7338 -10.66666,-10.7002 -3.71166,-3.9664 -8.51166,-8.7664 -10.66667,-10.6667 -2.15501,-1.9003 -6.95501,-6.7003 -10.66667,-10.6667 -3.71166,-3.9663 -8.53161,-8.7663 -10.711,-10.6666 -2.1794,-1.9003 -6.9794,-6.6932 -10.66667,-10.6509 -3.68727,-3.9576 -8.46732,-8.7576 -10.62233,-10.6666 -2.15501,-1.909 -6.95501,-6.7161 -10.66667,-10.6825 -3.71165,-3.9664 -8.51165,-8.7664 -10.66666,-10.6667 -2.15501,-1.9003 -6.95501,-6.7003 -10.66667,-10.6667 -3.71166,-3.9664 -8.51166,-8.7664 -10.66667,-10.6666 -2.15501,-1.9003 -6.95501,-6.7003 -10.66666,-10.6667 -3.71166,-3.9664 -8.53161,-8.7664 -10.71101,-10.6667 -2.17939,-1.9002 -6.97939,-6.6931 -10.66667,-10.6508 -3.68727,-3.9577 -8.48727,-8.7577 -10.66666,-10.6667 -2.1794,-1.9089 -6.9794,-6.7089 -10.66667,-10.6666 -3.68727,-3.9577 -8.46732,-8.7577 -10.62233,-10.6667 -2.15501,-1.909 -6.95501,-6.7161 -10.66667,-10.6825 -3.71166,-3.9664 -8.51166,-8.7664 -10.66666,-10.6667 -2.15501,-1.9002 -6.95501,-6.7002 -10.66667,-10.6666 -3.71166,-3.9664 -8.51166,-8.7664 -10.66667,-10.6667 -2.15501,-1.9003 -6.95501,-6.7003 -10.66667,-10.6667 -3.71165,-3.9664 -8.51165,-8.7664 -10.66666,-10.6666 -2.15501,-1.9003 -6.95501,-6.7003 -10.66667,-10.6667 -3.71166,-3.9664 -8.53161,-8.7664 -10.71101,-10.6667 -2.17939,-1.9002 -6.97939,-6.6931 -10.66666,-10.6508 -3.68727,-3.9577 -8.46732,-8.7577 -10.62233,-10.6667 -2.15501,-1.9089 -6.95501,-6.7161 -10.66667,-10.6825 -3.71166,-3.9664 -8.50195,-8.7664 -10.6451,-10.6666 -2.14315,-1.9003 -5.33679,-4.9551 -7.09697,-6.7884 -1.76019,-1.8333 -3.78687,-3.9333 -4.50375,-4.6667 -0.71687,-0.7333 -2.32324,-2.4979 -3.5697,-3.9212 -1.24645,-1.4234 -4.02417,-4.1234 -6.17271,-6 -5.95194,-5.1988 -18.09357,-17.8367 -18.09357,-18.8332 0,-0.4856 -2.25,-2.4722 -5,-4.4146 -2.75,-1.9424 -7.7,-6.7881 -11,-10.7683 -3.30001,-3.9801 -6.64862,-7.2725 -7.44137,-7.3163 -0.79274,-0.044 -2.26527,-1.6192 -3.27229,-3.5008 -1.0569,-1.9749 -3.41855,-3.7387 -5.58638,-4.1722 -4.65902,-0.9319 -5.59022,-2.2847 -3.0333,-4.4067 1.08385,-0.8995 1.64184,-2.1675 1.23996,-2.8178 -1.11728,-1.8078 198.53416,-1.5414 200.34289,0.2673 1.04379,1.0438 1.74431,0.9725 2.50274,-0.2546 0.57927,-0.9373 0.49699,-1.8896 -0.18284,-2.1161 -0.75131,-0.2504 -1.11074,-54.3427 -0.91649,-137.9281 l 0.31957,-137.51604 31.68043,0.10936 31.68042,0.10936 0.3737,66.08554 c 0.25201,44.56668 -0.0851,66.94278 -1.03522,68.71808 -1.38444,2.5869 -0.78843,2.6388 34.29297,2.9878 l 35.70189,0.3552 v 69.0005 69.0006 l 98.73332,-6e-4 c 69.3207,-4e-4 99.1652,0.4313 100.1829,1.449 1.0438,1.0438 1.7002,1.0438 2.3453,0 0.4927,-0.7972 2.6393,-1.4495 4.7703,-1.4495 2.4659,0 4.3761,-0.9376 5.2546,-2.579 0.9411,-1.7585 1.3835,-111.7367 1.3906,-345.6667 l 0.01,-343.08768 4.7316,4.66667 c 2.6023,2.56667 7.5477,7.62012 10.9896,11.2299 3.442,3.60977 8.0582,8.24923 10.2582,10.3099 10.058,9.42108 12.4247,11.75384 18.8173,18.54799 3.7495,3.98505 7.6495,7.89655 8.6666,8.69222 1.0172,0.79567 3.9494,4.00564 6.5161,7.13328 5.3025,6.46151 10.9294,12.08671 12.0901,12.08671 0.4313,0 7.3374,6.67138 15.347,14.82528 8.0096,8.1539 16.7065,17.0039 19.3265,19.66667 2.62,2.66276 6.52,6.42445 8.6667,8.3593 2.1466,1.93484 7.9462,7.63484 12.888,12.66666 4.9417,5.03182 9.7417,9.79648 10.6667,10.58813 0.9249,0.79165 4.9816,5.17236 9.015,9.7349 4.0333,4.56254 8.9866,9.18192 11.0072,10.26529 2.0207,1.08337 5.1177,4.25685 6.8823,7.05218 3.3532,5.31181 4.9956,7.08981 10.6305,11.50827 1.8705,1.46666 9.8686,9.14619 17.7737,17.06561 7.9051,7.91942 17.6007,17.51942 21.5458,21.33333 11.144,10.77351 13.9547,13.71045 16.8271,17.58276 3.8563,5.19861 8.9772,9.93449 11.6667,10.78953 1.2833,0.40799 2.3333,1.1803 2.3333,1.71623 0,1.09067 11.9777,13.65625 18.0561,18.94237 2.1692,1.88641 6.0439,5.99638 8.6106,9.13328 5.3265,6.50984 10.9256,12.10356 12.1152,12.10356 0.445,0 7.1462,6.45 14.8916,14.33333 13.8055,14.05152 25.4449,25.60147 32.6864,32.4352 2.0021,1.88935 11.6225,11.48936 21.3786,21.33333 9.7562,9.84398 19.3562,19.44123 21.3333,21.32724 1.9772,1.886 6.6627,6.686 10.4122,10.66666 3.7496,3.98067 7.6496,7.88858 8.6667,8.68425 1.0171,0.79567 3.9493,3.99923 6.516,7.11903 6.5466,7.95746 7.9076,9.31835 11.8538,11.85274 1.9137,1.22912 4.6673,3.73779 6.1191,5.57483 1.4517,1.83703 5.8963,6.34006 9.8767,10.00673 6.9283,6.3821 8.6758,8.12784 19.1611,19.14102 2.5443,2.67244 7.2577,7.31204 10.4743,10.31023 3.2166,2.99819 7.0483,7.09637 8.515,9.10706 4.0823,5.59654 5.993,7.40381 11.5083,10.88545 2.7953,1.76462 6.0149,5.01166 7.1546,7.21565 1.1398,2.20401 2.6164,4.00721 3.2815,4.00721 0.6651,0 1.5488,1.05 1.9638,2.3334 0.4149,1.2833 3.0054,3.8333 5.7565,5.6666 2.7511,1.8334 6.0039,4.5669 7.2285,6.0745 1.9639,2.4179 14.3845,14.9946 18.3615,18.5922 0.8106,0.7333 5.6281,5.5333 10.7054,10.6667 5.0774,5.1333 9.8714,9.9333 10.6535,10.6667 0.7821,0.7333 9.814,9.917 20.0708,20.4082 l 18.6489,19.0749 v 304.5918 304.5917 l -317.6666,-0.014 -317.6667,-0.014 z M 902.64629,1197.0001 c 0.0112,-0.55 -0.57958,-1 -1.31291,-1 -0.73334,0 -1.32415,1.35 -1.31292,3 0.0165,2.4259 0.26775,2.6172 1.31292,1 0.71087,-1.1 1.30168,-2.45 1.31291,-3 z M 846.74062,722.64747 c -0.16951,-55.4042 0.0474,-62.77768 1.86715,-63.47599 2.62849,-1.00864 2.6637,-3.98741 0.0589,-4.98695 -1.1,-0.42211 -2,-1.66519 -2,-2.76241 0,-4.0897 -5.10782,-4.75542 -36.48628,-4.75542 h -31.32826 l -0.42606,-3 c -1.08086,-7.61042 0.39797,-127.66668 1.57256,-127.66668 0.70428,0 2.50489,2.4 4.00137,5.33334 1.49647,2.93333 3.63493,5.33333 4.75212,5.33333 1.1172,0 25.555,23.6272 54.30624,52.50489 28.75124,28.87768 53.56204,52.89814 55.13512,53.37879 1.94314,0.59373 3.1423,2.37799 3.74023,5.5652 1.00447,5.35427 4.3318,7.39372 6.7244,4.12164 1.30479,-1.7844 1.76856,0.46347 2.47386,11.99078 1.09609,17.91417 1.14536,126.16458 0.0587,128.99633 -0.70662,1.84141 -4.83522,2.10905 -32.53383,2.10905 h -31.7245 z m 58.59276,54.6859 c 0,-0.73333 -0.63541,-1.33333 -1.41203,-1.33333 -0.77661,0 -1.0412,0.6 -0.58797,1.33333 0.45322,0.73333 1.08863,1.33333 1.41202,1.33333 0.32339,0 0.58798,-0.6 0.58798,-1.33333 z M 789.33337,644.00003 c 0,-0.73333 -0.26459,-1.33333 -0.58798,-1.33333 -0.32338,0 -0.95879,0.6 -1.41202,1.33333 -0.45322,0.73333 -0.18863,1.33333 0.58798,1.33333 0.77661,0 1.41202,-0.6 1.41202,-1.33333 z M 571.33336,507.90922 c -2.17154,-0.8592 -1.86209,-1.0725 1.66667,-1.14882 4.50632,-0.0974 5.52687,0.50688 2.66666,1.57913 -0.91666,0.34364 -2.86666,0.15 -4.33333,-0.43031 z m 197.29735,0.0326 c -0.43343,-0.7013 0.44736,-1.2751 1.9573,-1.2751 3.21942,0 3.54421,0.74148 0.78806,1.79912 -1.07651,0.41309 -2.31193,0.17729 -2.74536,-0.52402 z m 340.70269,0.0566 c -1.4263,-0.92055 0.072,-1.29673 5.2222,-1.31129 3.9722,-0.0112 6.9722,0.19998 6.6667,0.46937 -1.5415,1.35901 -10.1439,1.9682 -11.8889,0.84192 z m -196.26669,-1.59838 c 1.24444,-1.24444 1.95556,-1.24444 3.2,0 1.24444,1.24445 0.88889,1.6 -1.6,1.6 -2.48889,0 -2.84444,-0.35555 -1.6,-1.6 z"
         id="path210" />
      <path
         style="fill:#ce1e3e"
         d="m 1073.0001,1698.5599 c -3.1696,-1.846 -2.954,-5.2265 0.3333,-5.2265 1.9555,0 2.6667,0.8889 2.6667,3.3333 0,3.7848 0.1188,3.7098 -3,1.8932 z m -13.3334,-6.5223 c -7.1357,-7.616 -6.6857,-9.3709 2.403,-9.3709 h 7.403 l -0.403,6.9876 c -0.5137,8.9072 -2.7576,9.4759 -9.403,2.3833 z m -8,-14.811 c -3.1695,-1.8461 -2.9539,-5.2265 0.3334,-5.2265 1.9555,0 2.6666,0.8889 2.6666,3.3333 0,3.7847 0.1188,3.7097 -3,1.8932 z m -13.3333,-6.5224 c -7.1358,-7.6159 -6.6858,-9.3708 2.403,-9.3708 h 7.403 l -0.403,6.9875 c -0.5137,8.9072 -2.7576,9.476 -9.403,2.3833 z m -8,-14.8109 c -3.1696,-1.8461 -2.954,-5.2266 0.3333,-5.2266 1.9556,0 2.6667,0.8889 2.6667,3.3334 0,3.7847 0.1188,3.7097 -3,1.8932 z M 1017,1649.5324 c -7.2483,-7.5043 -6.7371,-9.5323 2.4031,-9.5323 h 7.403 l -0.403,6.9875 c -0.5112,8.8634 -2.7221,9.4617 -9.4031,2.5448 z m -8,-14.9725 c -3.1695,-1.846 -2.9539,-5.2265 0.3334,-5.2265 1.9555,0 2.6666,0.8889 2.6666,3.3333 0,3.7848 0.1188,3.7098 -3,1.8932 z m -13.33329,-6.5223 c -7.13575,-7.616 -6.68574,-9.3709 2.40302,-9.3709 h 7.40297 l -0.403,6.9876 c -0.5137,8.9072 -2.7576,9.4759 -9.40299,2.3833 z m -8,-14.811 c -3.16955,-1.8461 -2.95395,-5.2265 0.33334,-5.2265 1.95555,0 2.66666,0.8889 2.66666,3.3333 0,3.7847 0.1188,3.7097 -3,1.8932 z m -13.33333,-6.3609 c -7.24836,-7.5043 -6.73712,-9.5323 2.40301,-9.5323 h 7.40302 l -0.40302,6.9875 c -0.5112,8.8634 -2.72206,9.4617 -9.40301,2.5448 z m -8,-14.9724 c -3.16955,-1.8461 -2.95396,-5.2266 0.33333,-5.2266 1.95556,0 2.66667,0.8889 2.66667,3.3334 0,3.7847 0.1188,3.7097 -3,1.8932 z m -13.33333,-6.5224 c -7.13576,-7.616 -6.68575,-9.3708 2.40301,-9.3708 h 7.40301 l -0.40301,6.9875 c -0.51374,8.9072 -2.7576,9.4759 -9.40301,2.3833 z m -8,-14.811 c -3.16956,-1.8461 -2.95396,-5.2265 0.33333,-5.2265 1.95555,0 2.66667,0.8889 2.66667,3.3333 0,3.7847 0.1188,3.7098 -3,1.8932 z m -13.45876,-7.0598 c -2.68102,-3.2719 -4.87458,-6.5978 -4.87458,-7.3911 0,-0.861 2.98378,-1.4423 7.40301,-1.4423 h 7.40302 l -0.40302,6.9876 c -0.52957,9.1818 -3.10786,9.6812 -9.52843,1.8458 z m -7.87458,-14.2735 c -3.16955,-1.8461 -2.95396,-5.2265 0.33333,-5.2265 1.95556,0 2.66667,0.8889 2.66667,3.3333 0,3.7847 0.1188,3.7097 -3,1.8932 z m -14.08008,-7.4148 c -4.17831,-4.5728 -5.61252,-7.1854 -5.32017,-9.6914 0.49967,-4.2831 5.06692,-5.6815 5.06692,-1.5514 0,2.3422 0.82519,2.7644 5.40301,2.7644 h 5.40301 l -0.40301,6.9875 c -0.52908,9.1733 -2.82226,9.5102 -10.14976,1.4909 z m -20.58659,-20.4634 c -7.12393,-7.5713 -6.68038,-9.3483 2.33334,-9.3483 h 7.33333 v 7.3333 c 0,9.1992 -2.43029,9.7058 -9.66667,2.015 z m -8,-14.7885 c -3.16955,-1.8461 -2.95396,-5.2265 0.33334,-5.2265 1.95555,0 2.66666,0.8889 2.66666,3.3333 0,3.7847 0.1188,3.7098 -3,1.8932 z m -13.33333,-6.5223 c -7.13576,-7.616 -6.68575,-9.3709 2.40301,-9.3709 h 7.40301 l -0.40301,6.9876 c -0.51373,8.9072 -2.7576,9.4759 -9.40301,2.3833 z m -8,-14.811 c -3.16955,-1.8461 -2.95396,-5.2265 0.33333,-5.2265 1.95556,0 2.66667,0.8889 2.66667,3.3333 0,3.7847 0.1188,3.7097 -3,1.8932 z m -13.33334,-6.5224 c -7.13575,-7.6159 -6.68574,-9.3708 2.40302,-9.3708 h 7.40301 l -0.40301,6.9875 c -0.51374,8.9072 -2.7576,9.476 -9.40302,2.3833 z m -8,-14.8109 c -3.16955,-1.8461 -2.95395,-5.2266 0.33334,-5.2266 1.95555,0 2.66666,0.8889 2.66666,3.3334 0,3.7847 0.1188,3.7097 -3,1.8932 z m -14.08007,-7.4148 c -4.17832,-4.5728 -5.61252,-7.1854 -5.32017,-9.6914 0.49966,-4.2831 5.06691,-5.6816 5.06691,-1.5515 0,2.3423 0.82519,2.7645 5.40301,2.7645 h 5.40302 l -0.40302,6.9875 c -0.52908,9.1733 -2.82225,9.5102 -10.14975,1.4909 z m -21.36633,-21.3695 c -4.1502,-4.542 -5.57924,-7.1516 -5.28718,-9.6552 0.49967,-4.2831 5.06691,-5.6816 5.06691,-1.5515 0,2.3363 0.82602,2.7644 5.33334,2.7644 h 5.33333 v 7.3334 c 0,9.4666 -2.56124,9.7385 -10.4464,1.1089 z m -20.5536,-20.4273 c -7.12393,-7.5713 -6.68038,-9.3483 2.33333,-9.3483 h 7.33334 v 7.3333 c 0,9.1992 -2.43029,9.7058 -9.66667,2.015 z m -8,-14.7884 c -3.16955,-1.8461 -2.95396,-5.2266 0.33333,-5.2266 1.95556,0 2.66667,0.8889 2.66667,3.3334 0,3.7847 0.1188,3.7097 -3,1.8932 z m -13.33333,-6.5224 c -7.13576,-7.616 -6.68575,-9.3708 2.40301,-9.3708 h 7.40301 l -0.40301,6.9875 c -0.51373,8.9072 -2.7576,9.4759 -9.40301,2.3833 z m -8,-14.811 c -3.16956,-1.8461 -2.95396,-5.2265 0.33333,-5.2265 1.95555,0 2.66667,0.8889 2.66667,3.3333 0,3.7847 0.1188,3.7098 -3,1.8932 z m -13.33334,-6.5223 c -7.13575,-7.616 -6.68575,-9.3709 2.40301,-9.3709 h 7.40302 l -0.40301,6.9875 c -0.51374,8.9073 -2.7576,9.476 -9.40302,2.3834 z m -8,-14.811 c -3.16955,-1.8461 -2.95396,-5.2265 0.33333,-5.2265 1.95556,0 2.66667,0.8889 2.66667,3.3333 0,3.7847 0.1188,3.7097 -3,1.8932 z m -13.33333,-6.5224 c -7.13576,-7.616 -6.68575,-9.3708 2.40301,-9.3708 h 7.40301 l -0.40301,6.9875 c -0.51373,8.9072 -2.7576,9.476 -9.40301,2.3833 z m -8,-14.8109 c -3.16955,-1.8461 -2.95396,-5.2266 0.33333,-5.2266 1.95556,0 2.66667,0.8889 2.66667,3.3334 0,3.7847 0.1188,3.7097 -3,1.8932 z m -14.08008,-7.4148 c -4.17832,-4.5728 -5.61252,-7.1854 -5.32017,-9.6914 0.49966,-4.2831 5.06691,-5.6816 5.06691,-1.5515 0,2.3423 0.8252,2.7645 5.40302,2.7645 h 5.40301 l -0.40301,6.9875 c -0.52909,9.1733 -2.82226,9.5101 -10.14976,1.4909 z M 675.6667,1308.015 c -7.12393,-7.5712 -6.68038,-9.3483 2.33333,-9.3483 h 7.33334 v 7.3334 c 0,9.1991 -2.43029,9.7057 -9.66667,2.0149 z m -8,-14.7884 c -3.16955,-1.8461 -2.95396,-5.2265 0.33333,-5.2265 1.95556,0 2.66667,0.8889 2.66667,3.3333 0,3.7847 0.1188,3.7097 -3,1.8932 z m -13.33334,-6.5224 c -7.13575,-7.616 -6.68574,-9.3708 2.40302,-9.3708 h 7.40301 l -0.40301,6.9875 c -0.51374,8.9072 -2.7576,9.476 -9.40302,2.3833 z m -8,-14.8109 c -3.16955,-1.8461 -2.95395,-5.2266 0.33334,-5.2266 1.95555,0 2.66666,0.8889 2.66666,3.3334 0,3.7847 0.11881,3.7097 -3,1.8932 z m -12.24978,-5.065 c -1.09171,-2.1111 -2.90711,-4.1923 -4.03424,-4.6248 -1.12712,-0.4325 -2.04931,-2.0052 -2.04931,-3.4949 0,-2.3942 0.85112,-2.7085 7.33333,-2.7085 h 7.33334 v 6.524 c 0,4.719 -0.5835,6.7479 -2.10905,7.3333 -3.54586,1.3607 -4.41409,0.9544 -6.47407,-3.0291 z m -9.08355,-16.2684 c -3.16955,-1.8461 -2.95396,-5.2265 0.33333,-5.2265 1.95556,0 2.66667,0.8889 2.66667,3.3333 0,3.7847 0.1188,3.7098 -3,1.8932 z m -13.33333,-6.5224 c -7.13576,-7.6159 -6.68575,-9.3708 2.40301,-9.3708 h 7.40301 l -0.40301,6.9875 c -0.51373,8.9073 -2.7576,9.476 -9.40301,2.3833 z m -8,-14.8109 c -3.16956,-1.8461 -2.95396,-5.2265 0.33333,-5.2265 1.95555,0 2.66667,0.8888 2.66667,3.3333 0,3.7847 0.1188,3.7097 -3,1.8932 z m -13.3115,-6.3384 c -5.47981,-5.6734 -5.31307,-6.8881 0.94554,-6.8881 5.99282,0 9.02229,2.6391 8.48034,7.3876 -0.63912,5.5999 -3.69084,5.4382 -9.42588,-0.4995 z m 319.31151,-3.7712 c -2.31163,-0.9327 -2.09801,-7.9995 0.26929,-8.9079 1.06477,-0.4086 45.31477,-0.6339 98.3333,-0.5006 l 96.3974,0.2422 -93.1448,0.3671 -93.14483,0.367 0.54375,4.6576 c 0.51829,4.4395 0.35335,4.6527 -3.52184,4.5524 -2.23608,-0.058 -4.8156,-0.4079 -5.73227,-0.7778 z m -16.33333,-5.1169 c 0,-4.0526 0.4262,-4.6667 3.2388,-4.6667 2.85115,0 3.42044,-0.875 4.75637,-7.3101 0.83466,-4.0205 2.0772,-7.656 2.7612,-8.0787 0.73976,-0.4572 1.2519,-25.7217 1.26404,-62.3566 0.0112,-33.8734 0.55068,-62.4254 1.19877,-63.4489 0.64809,-1.0235 1.98891,-1.5502 2.97958,-1.1704 1.49499,0.5731 1.65429,11.6575 0.93694,65.1942 -0.95585,71.3363 -1.39375,77.9116 -5.25602,78.9216 -1.68057,0.4395 -2.54635,1.8417 -2.54635,4.1241 0,3.0633 -0.53286,3.4581 -4.66667,3.4581 -4.44444,0 -4.66666,-0.2222 -4.66666,-4.6666 z m 215.98522,-0.6943 c -1.8651,-3.485 -0.6621,-5.3057 3.5055,-5.3057 1.8827,0 2.9747,-0.5803 2.5093,-1.3334 -0.4532,-0.7333 0.4114,-1.3333 1.9213,-1.3333 3.7422,0 3.5624,4.1009 -0.3406,7.7676 -3.84,3.6075 -5.7469,3.6589 -7.5955,0.2048 z m 18.7752,-0.3925 c -0.7849,-2.0644 -1.4271,-4.2898 -1.4271,-4.9452 0,-2.1602 4.6421,-10.5684 5.8532,-10.6019 1.4935,-0.041 0.1493,13.6749 -1.6563,16.9013 -1.2087,2.1598 -1.4851,2.0247 -2.7698,-1.3542 z m -354.76043,0.8497 c -1.83333,-0.2973 -4.53333,-1.1224 -6,-1.8337 -1.62215,-0.7866 -38.44131,-1.4214 -94,-1.6206 l -91.33334,-0.3275 94.92131,-0.3239 c 66.58862,-0.2272 95.18871,-0.7566 95.81715,-1.7734 0.49271,-0.7972 2.02752,-1.1535 3.4107,-0.7918 3.03651,0.794 4.73056,-1.4123 2.668,-3.4749 -2.13352,-2.1335 -1.8267,-4.9505 0.53921,-4.9505 1.79556,0 2.01498,-15.0814 1.95142,-134.124 -0.0643,-120.47038 -0.2816,-134.04343 -2.13444,-133.33243 -1.30014,0.49891 -1.84725,0.17503 -1.47976,-0.87599 0.53367,-1.52631 3.26618,-1.66441 7.17624,-0.36269 4.02057,1.33851 4.46351,15.0346 4.46351,138.01541 0,70.575 -0.50855,124.17 -1.18218,124.5863 -2.43758,1.5065 -3.01234,10.0316 -0.88145,13.0739 2.54812,3.6379 2.61057,5.0195 0.22689,5.0195 -1.01021,0 -2.58367,0.9 -3.49659,2 -1.62232,1.9548 -3.91797,2.1907 -10.66667,1.0963 z m 140.85117,-6.4296 c -0.55282,-1.4406 0.14139,-2 2.48217,-2 2.34078,0 3.03499,0.5594 2.48217,2 -0.42211,1.1 -1.53909,2 -2.48217,2 -0.94308,0 -2.06006,-0.9 -2.48217,-2 z m -19.99416,-6.6515 c -0.46609,-1.2146 -0.22848,-3.3649 0.52802,-4.7784 0.9465,-1.7686 0.94501,-2.5701 -0.005,-2.5701 -0.93142,0 -1.38024,-19.929 -1.38024,-61.2864 0,-59.2275 0.0866,-61.3328 2.57901,-62.6667 1.41845,-0.7591 3.06845,-1.3804 3.66666,-1.3806 1.58841,-6e-4 0.66137,121.6266 -0.93923,123.2272 -0.71854,0.7186 -1.31563,2.8365 -1.32686,4.7065 -0.0285,4.7371 -1.98515,7.7126 -3.12258,4.7485 z M 1124.0001,861.66674 c 0.3666,-187.55003 1.1412,-341.73258 1.7213,-342.6279 1.8551,-2.86317 12.7263,8.7093 17.0461,18.14561 2.1446,4.68476 3.8992,8.73476 3.8992,9 0,0.26523 -1.8,0.48224 -4,0.48224 -3.7898,0 -4,-0.28543 -4,-5.4311 0,-4.45476 -0.4194,-5.35032 -2.3333,-4.98174 -2.2136,0.42629 -2.3506,17.3281 -2.6693,329.43111 -0.2223,217.62964 -0.7864,329.03814 -1.6667,329.14844 -2.6502,0.3319 -3.3588,0.5587 -4.9973,1.5991 -0.9167,0.582 -1.6667,2.2229 -1.6667,3.6462 0,1.4234 -0.45,2.588 -1,2.5881 -0.55,0 -0.7,-153.45 -0.3333,-341.00006 z m 580.6666,246.33336 c -0.4532,-0.7334 -0.1886,-1.3334 0.588,-1.3334 0.7766,0 1.412,0.6 1.412,1.3334 0,0.7333 -0.2645,1.3333 -0.5879,1.3333 -0.3234,0 -0.9588,-0.6 -1.4121,-1.3333 z m -3.0006,-8.3334 c 0.3052,-0.9166 1.6628,-1.8814 3.0168,-2.1438 2.2618,-0.4383 2.2876,-0.3028 0.3181,1.6667 -2.5618,2.5618 -4.1024,2.7822 -3.3349,0.4771 z m -8.3327,-5.6666 c 0,-3 -0.5333,-3.3334 -5.3333,-3.3334 -5.3144,0 -5.3334,-0.018 -5.3334,-5.2222 0,-2.8722 -0.7062,-5.4576 -1.5694,-5.7454 -0.8631,-0.2877 -1.1267,-1.2393 -0.5857,-2.1147 0.742,-1.2005 1.7009,-1.222 3.9027,-0.087 4.0407,2.0821 10.2524,8.9249 10.2524,11.294 0,1.0777 0.9,2.3049 2,2.727 2.6263,1.0078 2.5615,3.9814 -0.109,5.0062 -3.1113,1.1939 -3.2243,1.1054 -3.2243,-2.524 z m -21.3333,-21.3334 c 0,-3 -0.5334,-3.3333 -5.3334,-3.3333 -5.3144,0 -5.3333,-0.018 -5.3333,-5.2222 0,-2.8723 -0.7062,-5.4577 -1.5694,-5.7454 -0.8632,-0.2877 -1.1417,-1.2151 -0.619,-2.0608 2.1894,-3.5425 16.46,7.3268 14.9129,11.3586 -0.3738,0.9739 0.2104,2.1122 1.298,2.5296 2.6073,1.0005 2.529,3.9766 -0.1315,4.9975 -3.1113,1.1939 -3.2243,1.1054 -3.2243,-2.524 z m -840.48223,-5.3333 c -1.0523,-2.7423 0.37287,-6 2.62482,-6 2.13738,0 7.19068,4.685 7.19068,6.6667 0,2.1877 -8.95351,1.5796 -9.8155,-0.6667 z m 13.8155,0.6667 c 0,-0.7334 0.9,-1.3334 2,-1.3334 1.1,0 2,0.6 2,1.3334 0,0.7333 -0.9,1.3333 -2,1.3333 -1.1,0 -2,-0.6 -2,-1.3333 z m -5.33333,-8.6667 c 0,-1.1 0.23581,-2 0.52402,-2 0.2882,0 0.86937,0.9 1.29148,2 0.42211,1.1 0.1863,2 -0.52401,2 -0.71032,0 -1.29149,-0.9 -1.29149,-2 z m 810.66666,-8 c 0,-3 -0.5333,-3.3334 -5.3333,-3.3334 h -5.3333 v -6 c 0,-5.2599 0.3553,-6 2.881,-6 3.4073,0 10.8217,7.781 9.8434,10.3302 -0.3737,0.9739 0.2104,2.1123 1.2981,2.5296 2.6073,1.0006 2.5289,3.9767 -0.1316,4.9976 -3.1112,1.1939 -3.2243,1.1054 -3.2243,-2.524 z m -821.81086,-3 c -0.45455,-2.75 -0.83306,-27.557 -0.84113,-55.1267 -0.014,-47.79787 0.10461,-50.23464 2.55279,-52.45021 1.41211,-1.27794 3.66211,-2.11295 5,-1.85558 2.29164,0.44083 2.47204,3.51747 3.1145,53.11687 l 0.68196,52.64892 0.6675,-51.99999 0.66749,-52 0.21195,54.66667 c 0.11657,30.06662 -0.0947,53.90452 -0.46959,52.97292 -0.46189,-1.1479 -1.53348,-0.6107 -3.32485,1.6667 -3.96719,5.0434 -7.26415,4.3891 -8.26062,-1.6396 z M 1629.3334,1032 v -5.3333 h -5.4064 -5.4064 l 0.4064,-6.2291 c 0.4859,-7.4482 2.5271,-8.5501 6.966,-3.7605 2.8945,3.1233 11.4404,18.0145 11.4404,19.935 0,0.3967 -1.8,0.7213 -4,0.7213 -3.7778,0 -4,-0.2963 -4,-5.3334 z m -21.3333,-23.3333 c 0,-3 -0.5334,-3.3333 -5.3334,-3.3333 h -5.3333 v -6.00002 c 0,-5.39119 0.3147,-6 3.1009,-6 3.8524,0 8.8991,5.17636 8.8991,9.12782 0,1.6257 0.9,3.3012 2,3.7233 2.6262,1.0078 2.5614,3.9815 -0.109,5.0062 -3.1113,1.1939 -3.2243,1.1054 -3.2243,-2.524 z m -21.3334,-21.33332 c 0,-3 -0.5333,-3.33333 -5.3333,-3.33333 -5.3144,0 -5.3333,-0.0185 -5.3333,-5.22223 0,-2.87222 -0.7063,-5.45763 -1.5694,-5.74535 -0.8632,-0.28773 -1.142,-1.2148 -0.6195,-2.06017 2.3345,-3.77728 14.1889,4.55125 14.1889,9.96868 0,1.72852 0.9,3.48812 2,3.91023 2.6262,1.00777 2.5614,3.98143 -0.1091,5.00619 -3.1112,1.19389 -3.2243,1.10541 -3.2243,-2.52402 z m -21.3333,-21.33333 c 0,-3 -0.5333,-3.33334 -5.3333,-3.33334 -5.3144,0 -5.3334,-0.0185 -5.3334,-5.22222 0,-2.87222 -0.7062,-5.45763 -1.5694,-5.74536 -0.8631,-0.28772 -1.1419,-1.21479 -0.6194,-2.06016 2.3345,-3.77729 14.1888,4.55124 14.1888,9.96867 0,1.72852 0.9,3.48813 2,3.91024 2.6262,1.00777 2.5615,3.98142 -0.109,5.00618 -3.1113,1.1939 -3.2243,1.10542 -3.2243,-2.52401 z m -21.3333,-21.33334 c 0,-3 -0.5334,-3.33333 -5.3334,-3.33333 h -5.3333 v -6 c 0,-5.25995 0.3554,-6 2.8811,-6 3.4073,0 10.8216,7.78098 9.8434,10.33017 -0.3738,0.97393 0.2103,2.11225 1.298,2.52962 2.6073,1.00052 2.529,3.97662 -0.1315,4.99756 -3.1113,1.1939 -3.2243,1.10541 -3.2243,-2.52402 z m -710.96467,-8.07572 c -0.36843,-0.36843 -10.30296,-0.80212 -22.07673,-0.96375 -11.77377,-0.16162 -21.90507,-0.79292 -22.51399,-1.40288 -0.60893,-0.60995 0.0566,-1.95996 1.47893,-3 1.94369,-1.42126 7.26748,-1.89098 21.43215,-1.89098 18.15711,0 18.95573,0.11671 21.84544,3.19267 1.64965,1.75597 2.43792,3.53966 1.75172,3.96375 -0.68619,0.42409 -1.54908,0.46963 -1.91752,0.10119 z m 7.96461,-2.69355 c -0.55,-0.55468 -1,-2.22851 -1,-3.71962 0,-1.96237 0.40276,-2.30834 1.45837,-1.25274 0.80211,0.80211 1.25211,2.47594 1,3.71962 -0.2521,1.24368 -0.90837,1.80741 -1.45837,1.25274 z m 681.66666,-10.56406 c 0,-3 -0.5333,-3.33334 -5.3333,-3.33334 h -5.3333 v -6 c 0,-5.25994 0.3553,-6 2.881,-6 3.4073,0 10.8217,7.78098 9.8434,10.33018 -0.3737,0.97392 0.2104,2.11225 1.2981,2.52961 2.6073,1.00052 2.5289,3.97663 -0.1316,4.99756 -3.1112,1.1939 -3.2243,1.10542 -3.2243,-2.52401 z m -21.3333,-19.33334 v -5.33333 h -5.3333 -5.3334 v -6 c 0,-5.39119 0.3147,-6 3.101,-6 4.0613,0 7.7238,4.20339 12.0484,13.82779 1.9345,4.30529 3.5173,8.05529 3.5173,8.33333 0,0.27805 -1.8,0.50555 -4,0.50555 -3.7778,0 -4,-0.2963 -4,-5.33334 z m -21.3333,-21.33333 v -5.33333 h -5.3334 -5.3333 v -6.66667 c 0,-5.54714 0.4057,-6.66667 2.4159,-6.66667 1.3288,0 3.8741,1.95 5.6564,4.33333 3.4651,4.63391 10.4538,17.00927 10.5415,18.66667 0.029,0.55 -1.7471,1 -3.9471,1 -3.7778,0 -4,-0.29629 -4,-5.33333 z m -32,-32.59361 c 0,-5.52933 0.2878,-6.07306 3.2148,-6.07306 3.4503,0 10.5962,7.21812 9.7361,9.83452 -0.271,0.82435 -3.2958,1.68169 -6.7218,1.9052 l -6.2291,0.40639 z m -10.6667,-10.07306 v -5.33333 h -5.3333 -5.3334 v -6.66667 c 0,-5.54714 0.4057,-6.66667 2.416,-6.66667 1.3287,0 3.8741,1.95 5.6563,4.33334 3.4651,4.6339 10.4538,17.00926 10.5415,18.66666 0.029,0.55 -1.7471,1 -3.9471,1 -3.7778,0 -4,-0.29629 -4,-5.33333 z m -32,-32.66667 c 0,-5.25994 0.3554,-6 2.8811,-6 3.0452,0 10.4522,7.2567 10.4522,10.24015 0,1.22293 -2.0339,1.75985 -6.6666,1.75985 h -6.6667 z m -10.6667,-12 c 0,-3 -0.5333,-3.33333 -5.3333,-3.33333 -5.3144,0 -5.3333,-0.0185 -5.3333,-5.22222 0,-2.87223 -0.7063,-5.45764 -1.5694,-5.74536 -0.8632,-0.28772 -1.142,-1.2148 -0.6195,-2.06016 2.3212,-3.75579 14.0278,5.13224 14.1409,10.73625 0.026,1.30635 0.948,2.72054 2.048,3.14265 2.6262,1.00777 2.5614,3.98143 -0.1091,5.00619 -3.1112,1.1939 -3.2243,1.10541 -3.2243,-2.52402 z m -487.14883,-12 c 0.42211,-1.1 0.14126,-2 -0.62413,-2 -0.94679,0 -1.42986,-21.70313 -1.5113,-67.89949 -0.11557,-65.5578 0.24476,-72.24576 3.70631,-68.79151 0.93893,0.93696 2.62988,134.18544 1.75578,138.35767 -0.26886,1.28333 -1.30003,2.33333 -2.29148,2.33333 -1.05456,0 -1.48415,-0.82998 -1.03518,-2 z m -10.18449,-0.37391 c -1.1,-0.3524 -3.04044,-1.54676 -4.31208,-2.65415 -1.93255,-1.68293 -5.92677,-1.90378 -24.33333,-1.34547 -18.98351,0.57582 -22.02126,0.39204 -22.02126,-1.33226 0,-1.10013 1.05,-2.79729 2.33333,-3.77148 2.22222,-1.68691 2.22222,-1.77327 0,-1.81366 -2.18306,-0.0397 -2.33333,-3.51513 -2.33333,-53.96372 0,-34.08036 0.48483,-54.22095 1.31761,-54.73564 0.85671,-0.52948 1.44947,17.04958 1.69458,50.25465 l 0.37696,51.06897 0.25141,-55.00929 0.2514,-55.00929 -3.90105,-3.99071 c -2.14557,-2.19489 -4.97126,-3.9999 -6.27931,-4.01113 -2.0082,-0.0172 -2.0688,-0.21607 -0.38942,-1.27781 1.58395,-1.0014 1.65181,-1.59445 0.33334,-2.91292 -0.91054,-0.91053 -1.65552,-2.73552 -1.65552,-4.05552 0,-1.95549 1.04954,-2.37538 5.66666,-2.26709 7.82325,0.18348 10.92042,1.40848 11.46275,4.53376 0.25452,1.46666 0.34535,28.46725 0.20185,60.00131 -0.1435,31.53405 0.16893,60.20098 0.69428,63.70427 l 0.95519,6.36964 17.50963,-0.37094 17.50964,-0.37094 0.41567,-43.33334 c 0.52336,-54.55992 -0.60613,-84 -3.22272,-84 -3.36624,0 -2.07321,-5.31813 1.6359,-6.72833 8.07841,-3.07141 8.29331,-1.19913 8.32806,72.55694 0.0223,47.38107 -0.24852,54.91376 -2.07468,57.70084 -1.93433,2.95215 -1.90998,3.41592 0.30807,5.86684 2.34402,2.59011 3.42613,8.27772 1.98935,10.45616 -0.39214,0.59457 -1.61298,0.79271 -2.71298,0.44031 z m 476.00002,-8.95942 c 0,-3 -0.5333,-3.33334 -5.3333,-3.33334 h -5.3334 v -6 c 0,-5.25994 0.3554,-6 2.8811,-6 3.4073,0 10.8216,7.78098 9.8434,10.33018 -0.3737,0.97392 0.2104,2.11225 1.298,2.52961 2.6073,1.00052 2.529,3.97663 -0.1315,4.99756 -3.1113,1.1939 -3.2243,1.10542 -3.2243,-2.52401 z m -21.3333,-21.33334 c 0,-3.0075 -0.5285,-3.33333 -5.4064,-3.33333 h -5.4064 l 0.4064,-6.22911 c 0.2235,-3.42601 1.0808,-6.45083 1.9052,-6.72183 2.6383,-0.86732 9.8345,6.28749 9.8345,9.77798 0,1.79116 0.9,3.60201 2,4.02412 2.6262,1.00777 2.5614,3.98143 -0.1091,5.00619 -3.1112,1.1939 -3.2242,1.10541 -3.2242,-2.52402 z m -32,-31.33333 c 0,-8.10321 2.2383,-8.76001 8.0751,-2.36952 5.8842,6.44231 5.2885,9.03618 -2.0751,9.03618 h -6 z m -21.3334,-20.66667 c 0,-5.25995 0.3554,-6 2.8811,-6 3.0452,0 10.4523,7.2567 10.4523,10.24014 0,1.22294 -2.034,1.75986 -6.6667,1.75986 h -6.6667 z m -21.3333,-21.33333 c 0,-5.39119 0.3146,-6 3.1009,-6 3.8352,0 8.8991,5.17025 8.8991,9.08593 0,2.56482 -0.7191,2.91407 -6,2.91407 h -6 z m -8,-7.33334 c 0,-1.46666 -0.6,-2.66666 -1.3333,-2.66666 -0.7334,0 -1.3334,-1.2 -1.3334,-2.66667 0,-2.22222 -0.8889,-2.66667 -5.3333,-2.66667 h -5.3333 v -6 c 0,-5.25994 0.3553,-6 2.881,-6 3.3934,0 10.1921,7.14403 11.383,11.96114 0.4585,1.85471 1.9367,4.15622 3.2848,5.11447 3.563,2.53259 3.0805,5.59106 -0.8822,5.59106 -2.4444,0 -3.3333,-0.71111 -3.3333,-2.66667 z M 782.00004,645.33336 c 0.45322,-0.73333 0.25283,-1.33333 -0.44533,-1.33333 -1.96522,0 -3.14034,-4.281 -1.59838,-5.82296 0.90205,-0.90205 1.40953,-21.40628 1.47122,-59.44371 0.0933,-57.49637 0.11824,-58.0126 2.54347,-52.56135 2.13217,4.79253 2.89682,5.41977 5.90582,4.84457 3.8643,-0.73871 4.50538,1.07745 1.45653,4.1263 -1.70584,1.70585 -2,9.26984 -2,51.42858 v 49.42857 h 21.33334 21.33333 v 3.22428 c 0,7.39987 -0.11833,7.44239 -20.71408,7.44239 -15.19595,0 -19.50387,-0.40842 -21.09545,-2 -1.77777,-1.77778 -2.22222,-1.77778 -4,0 -2.2312,2.23121 -5.4765,2.7475 -4.19047,0.66666 z m 452.66666,-7.88889 c 0,-2.87222 -0.7062,-5.45763 -1.5694,-5.74535 -0.8631,-0.28773 -1.1419,-1.2148 -0.6194,-2.06017 2.3097,-3.73725 14.0264,5.12378 14.1409,10.69441 0.039,1.88365 -1.1084,2.33334 -5.9521,2.33334 h -6 z m -357.33332,-8.15295 c 0,-5.26594 8.04962,-4.80754 9.09776,0.51809 0.33526,1.70344 -0.62814,2.19042 -4.33333,2.19042 -3.90008,0 -4.76443,-0.49137 -4.76443,-2.70851 z m 346.66672,-4.62482 c 0,-3 -0.5334,-3.33334 -5.3334,-3.33334 h -5.3333 v -6.66666 c 0,-5.14436 0.4738,-6.66667 2.0752,-6.66667 2.754,0 9.9248,7.95167 9.9248,11.00566 0,1.32625 0.9,2.75673 2,3.17884 2.6262,1.00777 2.5614,3.98142 -0.1091,5.00618 -3.1112,1.1939 -3.2242,1.10542 -3.2242,-2.52401 z m -357.1035,-6.25162 c 0.37327,-2.63365 1.21221,-3.08172 5.77011,-3.08172 4.44444,0 5.33333,0.44445 5.33333,2.66667 0,2.19193 -1.02724,2.74056 -5.77011,3.08172 -5.3622,0.38571 -5.73923,0.19719 -5.33333,-2.66667 z M 856.24064,607.6667 c 0.51016,-3.59213 4.6957,-4.55926 8.30611,-1.91926 3.49675,2.55688 1.55111,4.91926 -4.05147,4.91926 -4.09142,0 -4.62707,-0.37769 -4.25464,-3 z m -10.67738,-10.58495 c 0.37328,-2.63366 1.21222,-3.08172 5.77011,-3.08172 4.44445,0 5.33334,0.44444 5.33334,2.66667 0,2.19192 -1.02724,2.74055 -5.77011,3.08171 -5.3622,0.38571 -5.73924,0.1972 -5.33334,-2.66666 z m 346.43684,-3.08172 c 0,-5.25995 0.3553,-6 2.881,-6 3.0453,0 10.4523,7.25669 10.4523,10.24014 0,1.22294 -2.034,1.75986 -6.6667,1.75986 h -6.6666 z m -357.33339,-7.37518 c 0,-5.26594 8.04962,-4.80754 9.09776,0.51809 0.33526,1.70344 -0.62814,2.19042 -4.33333,2.19042 -3.90008,0 -4.76443,-0.49137 -4.76443,-2.70851 z m 346.66669,-4.62482 c 0,-3 -0.5333,-3.33334 -5.3333,-3.33334 h -5.3334 v -5.85734 c 0,-7.79665 2.8404,-8.91018 8.084,-3.16921 2.1538,2.35813 3.916,5.37263 3.916,6.69888 0,1.32625 0.9,2.75673 2,3.17884 2.6262,1.00777 2.5615,3.98142 -0.109,5.00618 -3.1113,1.1939 -3.2243,1.10542 -3.2243,-2.52401 z m -357.10347,-6.25162 c 0.37327,-2.63365 1.21221,-3.08172 5.77011,-3.08172 4.44444,0 5.33333,0.44445 5.33333,2.66667 0,2.19193 -1.02724,2.74056 -5.77011,3.08172 -5.36219,0.38571 -5.73923,0.19719 -5.33333,-2.66667 z m -8.22989,-11.08172 c 0,-2.81481 -0.62222,-3.33333 -4,-3.33333 -2.66667,0 -4,-0.66667 -4,-2 0,-1.13352 -1.19549,-2 -2.7594,-2 -4.63572,0 -2.8379,-5.80318 2.09273,-6.75512 5.85984,-1.13134 8.66667,0.75329 8.66667,5.81919 0,3.17978 0.78136,4.64728 2.99221,5.61976 4.44816,1.95659 4.74351,5.98284 0.43889,5.98284 -2.77095,0 -3.4311,-0.64134 -3.4311,-3.33334 z m 344.00006,-2 v -5.33333 h -5.3334 -5.3333 v -6 c 0,-5.39119 0.3146,-6 3.1009,-6 4.0613,0 7.7238,4.20339 12.0484,13.82779 1.9346,4.30529 3.5174,8.05529 3.5174,8.33333 0,0.27805 -1.8,0.50555 -4,0.50555 -3.7778,0 -4,-0.2963 -4,-5.33334 z M 792.00004,543.95818 c 0,-5.26594 8.04962,-4.80754 9.09776,0.51809 0.33526,1.70344 -0.62814,2.19042 -4.33333,2.19042 -3.90008,0 -4.76443,-0.49137 -4.76443,-2.70851 z m -22.66667,-35.95816 c 0,-0.73333 0.63541,-1.33333 1.41202,-1.33333 0.77662,0 1.04121,0.6 0.58798,1.33333 -0.45322,0.73334 -1.08864,1.33334 -1.41202,1.33334 -0.32339,0 -0.58798,-0.6 -0.58798,-1.33334 z m 341.33333,0 c 0,-0.73333 1.2354,-1.33333 2.7454,-1.33333 1.5099,0 2.3745,0.6 1.9213,1.33333 -0.4532,0.73334 -1.6886,1.33334 -2.7454,1.33334 -1.0567,0 -1.9213,-0.6 -1.9213,-1.33334 z"
         id="path209" />
      <path
         style="fill:#cb203d"
         d="m 909.95866,1215.9331 c -1.26696,-2.05 0.46847,-3.3726 2.17978,-1.6613 0.95758,0.9576 0.98058,1.7034 0.0699,2.2662 -0.74656,0.4614 -1.75892,0.1892 -2.24969,-0.6049 z m 218.08074,-3.163 c -1.8106,-4.762 -0.8428,-7.7919 2.29,-7.1691 2.4263,0.4825 2.5743,4.96 0.2996,9.0657 -0.8706,1.5713 -1.4257,1.1647 -2.5896,-1.8966 z m -354.70603,0.9929 c -1.83333,-0.2973 -4.53333,-1.1224 -6,-1.8337 -1.62089,-0.786 -38.22318,-1.4247 -93.33334,-1.6286 l -90.66667,-0.3356 98.00001,-0.2992 c 53.9,-0.1645 98.78985,-0.3067 99.75523,-0.3158 1.12547,-0.011 1.60386,-1.3323 1.33333,-3.6834 -0.29162,-2.5345 -1.14236,-3.6095 -2.75523,-3.4815 -1.28333,0.1019 -2.33333,-0.6481 -2.33333,-1.6666 0,-1.0185 0.9,-1.8519 2,-1.8519 1.76453,0 2,-15.7936 2,-134.1426 0,-121.83609 -0.19371,-134.06836 -2.11141,-133.33247 -1.34648,0.51669 -1.90018,0.20609 -1.52834,-0.85735 0.32068,-0.91716 1.72082,-1.48906 3.11141,-1.27089 5.69612,0.89368 6.19777,1.47787 5.11091,5.95201 -1.73542,7.14404 -2.19645,255.7067 -0.47812,257.7772 0.83251,1.0031 1.08851,3.4779 0.59309,5.7336 -0.58078,2.6442 -0.15905,5.0562 1.26376,7.2277 2.08085,3.1757 2.01298,3.3313 -2.65582,6.0859 -2.63518,1.5548 -5.50694,2.7452 -6.38169,2.6453 -0.87475,-0.1 -3.09046,-0.4248 -4.92379,-0.7221 z m 336.89683,-1.3106 c -0.4846,-0.4845 0.4654,-1.5836 2.1111,-2.4423 1.6456,-0.8588 2.8421,-2.2623 2.6588,-3.119 -0.1834,-0.8568 0.8666,-1.5577 2.3333,-1.5577 3.0067,0 3.6438,3.8228 1.0667,6.4 -1.7204,1.7204 -6.7279,2.1611 -8.1699,0.719 z m -193.11663,-2.6829 c -3.79103,-1.004 -4.13675,-4.4361 -0.44686,-4.4361 2.33422,0 3.03442,0.5608 2.48564,1.9909 -0.67233,1.7521 10.49185,2.0332 93.04185,2.3425 l 93.8059,0.3516 -93.3334,0.1695 c -51.33332,0.093 -94.33224,-0.095 -95.55313,-0.4184 z m -13.11353,-7.169 c 0,-2.9697 0.91744,-7.1737 2.03875,-9.342 1.75942,-3.4024 1.98776,-12.3491 1.66666,-65.3012 -0.3009,-49.6217 -0.0423,-61.2885 1.35169,-60.9913 1.38164,0.2945 1.70756,13.0015 1.64216,64.0251 -0.0449,35.0598 -0.62812,65.0095 -1.29815,66.6667 -0.6691,1.6549 -1.56951,4.6589 -2.0009,6.6756 -1.18271,5.5289 -3.40021,4.3988 -3.40021,-1.7329 z m -9.79656,-1.8844 c -0.4733,-1.2334 -0.12588,-3.5491 0.77204,-5.146 l 1.63258,-2.9034 0.45035,2.9617 c 0.24769,1.6289 -0.0997,3.9446 -0.77204,5.1459 -1.12637,2.0127 -1.28998,2.0082 -2.08293,-0.058 z M 1123.6673,985.00008 c 0.7151,-466.20131 0.7061,-464.95653 3.3328,-459.37621 2.2026,4.67963 2.3333,23.5383 2.3333,336.83675 0,293.37748 -0.232,332.07218 -2,333.53948 -1.1,0.9129 -2,2.7863 -2,4.1632 0,1.3769 -0.45,2.5034 -1,2.5035 -0.55,0 -0.8498,-97.95 -0.6661,-217.66672 z M 897.33338,1130.2667 c 0,-48.9242 0.35713,-62.2667 1.66666,-62.267 2.10281,-5e-4 1.74875,121.1183 -0.36022,123.2272 -0.85304,0.8531 -1.30644,-20.3034 -1.30644,-60.9602 z m 807.33332,-22.2666 c -0.4532,-0.7334 -0.1886,-1.3334 0.588,-1.3334 0.7766,0 1.412,0.6 1.412,1.3334 0,0.7333 -0.2645,1.3333 -0.5879,1.3333 -0.3234,0 -0.9588,-0.6 -1.4121,-1.3333 z m -21.8947,-22.1112 c 0.064,-1.5532 0.3799,-1.8692 0.8056,-0.8055 0.3851,0.9625 0.3378,2.1125 -0.1053,2.5555 -0.4431,0.4431 -0.7582,-0.3444 -0.7003,-1.75 z m -837.43863,-17.8888 c 0,-0.7334 0.9,-1.3334 2,-1.3334 1.1,0 2,0.6 2,1.3334 0,0.7333 -0.9,1.3333 -2,1.3333 -1.1,0 -2,-0.6 -2,-1.3333 z m -14,-1.3334 c -1.08734,-1.7593 0.50695,-4.2561 2.09213,-3.2764 1.61949,1.0009 1.60897,4.6098 -0.0134,4.6098 -0.69005,0 -1.62546,-0.6 -2.07869,-1.3334 z m 830.10533,-2.1111 c 0.064,-1.5533 0.3799,-1.8692 0.8055,-0.8055 0.3852,0.9625 0.3378,2.1125 -0.1052,2.5555 -0.4431,0.4431 -0.7582,-0.3444 -0.7003,-1.75 z m -821.43866,-5.2222 c 0,-1.1 0.23581,-2 0.52402,-2 0.2882,0 0.86937,0.9 1.29148,2 0.42211,1.1 0.1863,2 -0.52401,2 -0.71032,0 -1.29149,-0.9 -1.29149,-2 z m -9.33333,-63.92133 c 0,-35.39818 0.47915,-55.55078 1.33333,-56.07869 0.88082,-0.54438 1.33333,18.20838 1.33333,55.25464 0,36.49688 -0.46558,56.07868 -1.33333,56.07868 -0.86744,0 -1.33333,-19.3071 -1.33333,-55.25463 z m 9.14265,52.25463 c -0.26179,-0.9167 -0.16224,-25.3667 0.22124,-54.33332 l 0.69722,-52.66667 0.30278,54.33334 c 0.16652,29.88335 0.067,54.33335 -0.22124,54.33335 -0.28821,0 -0.73821,-0.75 -1,-1.6667 z m 800.29594,-4.4444 c 0.064,-1.5533 0.38,-1.8692 0.8056,-0.8056 0.3852,0.9625 0.3378,2.1125 -0.1053,2.5556 -0.443,0.443 -0.7582,-0.3445 -0.7003,-1.75 z m -20.068,-18.5108 c -0.8925,-1.0753 -1.3133,-2.7253 -0.9352,-3.6666 0.4256,-1.0595 0.7276,-0.8062 0.7927,0.6648 0.058,1.3069 1.4553,2.9189 3.1053,3.5821 2.0301,0.8161 2.2984,1.2332 0.8299,1.2904 -1.1935,0.046 -2.9003,-0.7953 -3.7927,-1.8707 z m -22.5986,-24.1559 c 0.064,-1.55325 0.3799,-1.8692 0.8055,-0.80555 0.3852,0.96245 0.3378,2.11245 -0.1052,2.55555 -0.4431,0.4431 -0.7582,-0.3444 -0.7003,-1.75 z m -21.3334,-21.33333 c 0.064,-1.55326 0.38,-1.8692 0.8056,-0.80556 0.3852,0.9625 0.3378,2.1125 -0.1053,2.55556 -0.443,0.44305 -0.7582,-0.34445 -0.7003,-1.75 z m -21.3333,-21.33334 c 0.064,-1.55325 0.3799,-1.86919 0.8056,-0.80555 0.3851,0.9625 0.3378,2.1125 -0.1053,2.55555 -0.4431,0.44306 -0.7582,-0.34444 -0.7003,-1.75 z m -21.3333,-21.33333 c 0.064,-1.55326 0.3799,-1.8692 0.8055,-0.80556 0.3852,0.9625 0.3378,2.1125 -0.1052,2.55556 -0.4431,0.44306 -0.7582,-0.34444 -0.7003,-1.75 z m -700.65579,-0.22222 c -0.5472,-0.55 -9.79044,-1.3 -20.54053,-1.66667 -17.24458,-0.58818 -19.59815,-0.94136 -19.99175,-3 -0.40844,-2.13624 1.20185,-2.33333 19.06367,-2.33333 12.69131,0 19.22125,0.46686 18.6842,1.33583 -0.45408,0.7347 0.74662,1.93358 2.66821,2.66417 1.92159,0.73058 3.12228,1.92946 2.66821,2.66417 -0.98894,1.60012 -1.25882,1.63564 -2.55201,0.33583 z m 8.21713,-2.43594 c -0.55,-0.55468 -1,-2.22851 -1,-3.71962 0,-1.96237 0.40276,-2.30834 1.45837,-1.25274 0.80211,0.80211 1.25211,2.47594 1,3.71962 -0.2521,1.24368 -0.90837,1.80741 -1.45837,1.25274 z m 671.10526,-18.67517 c 0.064,-1.55326 0.38,-1.8692 0.8056,-0.80556 0.3852,0.9625 0.3378,2.1125 -0.1053,2.55556 -0.443,0.44305 -0.7582,-0.34445 -0.7003,-1.75 z m -21.3333,-21.33334 c 0.064,-1.55326 0.3799,-1.8692 0.8056,-0.80555 0.3851,0.9625 0.3377,2.1125 -0.1053,2.55555 -0.4431,0.44306 -0.7582,-0.34444 -0.7003,-1.75 z m -17.6886,-17.46637 c 0.9625,-0.38516 2.1125,-0.3378 2.5556,0.10526 0.443,0.44306 -0.3445,0.75819 -1.75,0.70029 -1.5533,-0.064 -1.8692,-0.37992 -0.8056,-0.80555 z m -3.6447,-3.86696 c 0.064,-1.55326 0.3799,-1.8692 0.8055,-0.80556 0.3852,0.9625 0.3378,2.1125 -0.1052,2.55556 -0.4431,0.44305 -0.7582,-0.34445 -0.7003,-1.75 z m -21.3334,-21.33334 c 0.064,-1.55325 0.38,-1.8692 0.8056,-0.80555 0.3851,0.9625 0.3378,2.1125 -0.1053,2.55555 -0.443,0.44306 -0.7582,-0.34444 -0.7003,-1.75 z m -17.6886,-17.46637 c 0.9625,-0.38516 2.1125,-0.33779 2.5556,0.10526 0.443,0.44306 -0.3445,0.75819 -1.75,0.70029 -1.5533,-0.064 -1.8692,-0.37992 -0.8056,-0.80555 z m -3.6447,-3.86696 c 0.064,-1.55326 0.3799,-1.8692 0.8056,-0.80556 0.3851,0.9625 0.3377,2.1125 -0.1053,2.55556 -0.4431,0.44305 -0.7582,-0.34445 -0.7003,-1.75 z m -21.3333,-21.33334 c 0.064,-1.55325 0.3799,-1.8692 0.8055,-0.80555 0.3852,0.9625 0.3378,2.1125 -0.1052,2.55555 -0.4431,0.44306 -0.7582,-0.34444 -0.7003,-1.75 z m -20.0681,-18.51072 c -0.8925,-1.07535 -1.3133,-2.72535 -0.9352,-3.66667 0.4256,-1.05947 0.7276,-0.8062 0.7927,0.6648 0.058,1.30697 1.4553,2.91894 3.1053,3.58215 2.0302,0.81603 2.2985,1.23318 0.8299,1.29037 -1.1935,0.0465 -2.9002,-0.79531 -3.7927,-1.87065 z m -477.39934,-8.61114 c 0.61512,-2.1448 0.7931,-4.22493 0.39551,-4.62253 -1.06513,-1.06512 -0.36684,-126.41268 0.71344,-128.0682 0.93432,-1.43184 2.66121,129.97605 1.76432,134.25704 -0.26886,1.28333 -1.27697,2.33333 -2.24025,2.33333 -1.30205,0 -1.46447,-1.00056 -0.63302,-3.89964 z m -11.50145,1.15855 c -3.62554,-1.3573 -5.29285,-3.92558 -2.54846,-3.92558 1.14328,0 2.07869,-0.6 2.07869,-1.33333 0,-0.82734 -7.3071,-1.33333 -19.25464,-1.33333 -26.9696,0 -26.40659,-2.43544 0.67872,-2.93597 12.59798,-0.23281 21.82527,0.1269 22.2822,0.86864 1.02621,1.66584 1.2448,7.20602 0.34004,8.61851 -0.39214,0.6122 -2.00159,0.63068 -3.57655,0.0411 z m -49.8031,-5.40156 c 0,-2.01394 0.59711,-2.58018 2.10905,-2 1.15997,0.44512 2.89578,0.80932 3.85735,0.80932 0.96156,0 2.09366,0.9 2.51577,2 0.59129,1.54088 -0.29419,2 -3.85735,2 -3.81421,0 -4.62482,-0.4924 -4.62482,-2.80932 z m 0,-59.14058 c 0,-34.49023 0.48002,-54.1894 1.33333,-54.71678 0.88009,-0.54392 1.33333,16.66678 1.33333,50.62983 0,44.50679 0.27004,51.55749 2,52.22134 2.90154,1.11343 2.46227,2.51018 -1.33333,4.23957 l -3.33333,1.51877 z m 516.10529,47.83879 c 0.064,-1.55326 0.3799,-1.8692 0.8056,-0.80556 0.3851,0.9625 0.3377,2.1125 -0.1053,2.55556 -0.4431,0.44305 -0.7582,-0.34445 -0.7003,-1.75 z m -465.30572,-54.8889 c 0.12036,-47.99387 0.81967,-63.5333 2.59515,-57.66667 1.21255,4.00659 -0.1989,110.66668 -1.46448,110.66668 -0.77691,0 -1.21239,-20.41268 -1.13067,-53.00001 z m 443.97242,33.55556 c 0.064,-1.55326 0.3799,-1.8692 0.8055,-0.80555 0.3852,0.9625 0.3378,2.1125 -0.1052,2.55555 -0.4431,0.44306 -0.7582,-0.34444 -0.7003,-1.75 z m -20.0681,-18.51073 c -0.8925,-1.07534 -1.3133,-2.72534 -0.9352,-3.66666 0.4256,-1.05947 0.7276,-0.8062 0.7927,0.6648 0.058,1.30696 1.4553,2.91893 3.1053,3.58215 2.0302,0.81602 2.2985,1.23318 0.8299,1.29037 -1.1935,0.0465 -2.9002,-0.79531 -3.7927,-1.87066 z m -22.5986,-24.15594 c 0.064,-1.55326 0.3799,-1.8692 0.8055,-0.80555 0.3852,0.9625 0.3378,2.1125 -0.1052,2.55555 -0.4431,0.44306 -0.7582,-0.34444 -0.7003,-1.75 z m -21.3333,-21.33333 c 0.064,-1.55326 0.3799,-1.8692 0.8055,-0.80556 0.3852,0.9625 0.3378,2.1125 -0.1053,2.55556 -0.443,0.44305 -0.7581,-0.34445 -0.7002,-1.75 z M 850.66671,661.03113 c 0,-1.0071 0.69457,-2.52567 1.54349,-3.37459 1.82492,-1.82492 -0.68594,-5.65651 -3.70675,-5.65651 -1.01021,0 -1.83674,-0.62896 -1.83674,-1.3977 0,-0.76873 -1.95,-2.24525 -4.33334,-3.28114 l -4.33333,-1.88345 4.06667,-0.0522 c 2.23666,-0.0287 4.63666,0.49701 5.33333,1.16825 0.69667,0.67123 2.76667,1.42123 4.6,1.66666 3.05014,0.40833 3.33333,1.01098 3.33333,7.09342 0,5.2701 -0.48338,6.74052 -2.33333,7.09776 -1.30826,0.25264 -2.33333,-0.35384 -2.33333,-1.38051 z m 405.43859,-1.80888 c 0.064,-1.55325 0.3799,-1.8692 0.8056,-0.80555 0.3851,0.9625 0.3378,2.1125 -0.1053,2.55555 -0.443,0.44306 -0.7582,-0.34444 -0.7003,-1.75 z M 781.9336,645.44086 c 0.41669,-0.67422 -0.22933,-2.21279 -1.43559,-3.41905 -1.63686,-1.63686 -1.80908,-2.57734 -0.67893,-3.70749 1.0809,-1.0809 1.52013,-17.36995 1.53471,-56.91429 0.0134,-36.26047 0.46695,-54.70905 1.31291,-53.4 0.77874,1.20501 1.30062,23.22619 1.31292,55.4 0.0136,35.66303 0.4878,53.86739 1.42756,54.80714 1.90246,1.90246 0.122,8.45953 -2.29704,8.45953 -1.06378,0 -1.59322,-0.55163 -1.17654,-1.22584 z m 10.43304,-1.44083 c -0.19209,-2.55012 0.62106,-2.66667 18.60515,-2.66667 10.34332,0 18.41123,0.3948 17.92871,0.87732 -0.48253,0.48253 -0.20906,1.68253 0.6077,2.66667 1.23064,1.48283 -1.80619,1.78935 -17.72783,1.78935 -18.25701,0 -19.22285,-0.13267 -19.41373,-2.66667 z m 52.27389,-2.70902 c -0.51781,-0.83783 -0.31408,-2.15072 0.45273,-2.91753 1.79187,-1.79187 5.96952,-0.22892 5.2405,1.96059 -0.74214,2.22891 -4.51516,2.8631 -5.69323,0.95694 z m 391.39677,-0.57948 c -0.8925,-1.07535 -1.3133,-2.72535 -0.9352,-3.66667 0.4255,-1.05947 0.7275,-0.8062 0.7927,0.6648 0.058,1.30697 1.4553,2.91894 3.1053,3.58215 2.0301,0.81603 2.2984,1.23318 0.8299,1.29037 -1.1936,0.0465 -2.9003,-0.79531 -3.7927,-1.87065 z m -345.62059,-4.28899 c 0.9625,-0.38516 2.1125,-0.33779 2.55555,0.10527 0.44306,0.44305 -0.34444,0.75819 -1.75,0.70029 -1.55325,-0.064 -1.86919,-0.37992 -0.80555,-0.80556 z m 324.28719,-17.04435 c -0.8924,-1.07534 -1.3133,-2.72534 -0.9352,-3.66666 0.4256,-1.05947 0.7276,-0.8062 0.7928,0.6648 0.058,1.30696 1.4552,2.91893 3.1052,3.58215 2.0302,0.81602 2.2985,1.23318 0.83,1.29037 -1.1936,0.0465 -2.9003,-0.79531 -3.7928,-1.87066 z m -345.37053,-3.37816 c -1.70919,-1.10457 -1.66072,-1.29547 0.33334,-1.31292 1.28333,-0.0112 2.33333,0.57959 2.33333,1.31292 0,1.62615 -0.15038,1.62615 -2.66667,0 z m 322.77193,-20.77778 c 0.064,-1.55326 0.3799,-1.8692 0.8056,-0.80555 0.3851,0.9625 0.3378,2.1125 -0.1053,2.55555 -0.443,0.44306 -0.7582,-0.34444 -0.7003,-1.75 z M 848.00004,594.6667 c -1.7092,-1.10457 -1.66073,-1.29547 0.33333,-1.31292 1.28334,-0.0112 2.33334,0.57958 2.33334,1.31292 0,1.62614 -0.15039,1.62614 -2.66667,0 z m -16,-17.41203 c 0,-0.77661 0.6,-1.0412 1.33333,-0.58798 0.73334,0.45323 1.33334,1.08864 1.33334,1.41203 0,0.32338 -0.6,0.58797 -1.33334,0.58797 -0.73333,0 -1.33333,-0.63541 -1.33333,-1.41202 z m 340.03726,-0.54315 c -0.8925,-1.07534 -1.3133,-2.72534 -0.9352,-3.66666 0.4255,-1.05947 0.7275,-0.8062 0.7927,0.6648 0.058,1.30696 1.4553,2.91893 3.1053,3.58215 2.0301,0.81602 2.2984,1.23318 0.8299,1.29037 -1.1936,0.0465 -2.9003,-0.79531 -3.7927,-1.87066 z m -345.37059,-3.37816 c -1.60903,-1.03983 -1.39816,-1.29649 1.07869,-1.31292 1.71675,-0.0114 2.71415,0.56942 2.25464,1.31292 -0.99091,1.60333 -0.85235,1.60333 -3.33333,0 z m 322.77199,-20.77778 c 0.064,-1.55326 0.3799,-1.8692 0.8055,-0.80555 0.3852,0.9625 0.3378,2.1125 -0.1053,2.55555 -0.443,0.44306 -0.7581,-0.34444 -0.7002,-1.75 z m -344.10533,-0.55555 c -1.70919,-1.10457 -1.66073,-1.29547 0.33334,-1.31292 1.28333,-0.0112 2.33333,0.57958 2.33333,1.31292 0,1.62614 -0.15038,1.62614 -2.66667,0 z m 326.24383,-13.84551 c -0.4367,-1.138 -0.2617,-2.3981 0.389,-2.80021 1.7009,-1.05121 2.7147,1.1321 1.4648,3.1545 -0.8279,1.33948 -1.2336,1.26194 -1.8538,-0.35429 z m -362.24383,-30.1545 c 0,-0.73333 0.63541,-1.33333 1.41202,-1.33333 0.77662,0 1.04121,0.6 0.58798,1.33333 -0.45322,0.73334 -1.08864,1.33334 -1.41202,1.33334 -0.32339,0 -0.58798,-0.6 -0.58798,-1.33334 z m 341.33333,0 c 0,-0.73333 1.2354,-1.33333 2.7454,-1.33333 1.5099,0 2.3745,0.6 1.9213,1.33333 -0.4532,0.73334 -1.6886,1.33334 -2.7454,1.33334 -1.0567,0 -1.9213,-0.6 -1.9213,-1.33334 z"
         id="path208" />
    </g>
    <text
       xml:space="preserve"
       id="text215"
       style="fill:#ff0000;text-orientation:auto;text-align:start;writing-mode:lr-tb;direction:ltr;white-space:pre;shape-inside:url(#rect215)" />
  </g>
</svg>
